# xmcd CD database file
#
# Track frame offsets:
#	182
#	11500
#	27190
#	42267
#	59925
#	69915
#	83082
#	98610
#	110000
#	123865
#	142580
#	147965
#	163607
#	178752
#	203140
#
# Disc length: 2947 seconds
#
# Revision: 0
# Processed by: cddbd v1.5PL3 Copyright (c) Steve Scherf et al.
# Submitted via: CDex 1.51
#
DISCID=c60b810f
DTITLE=Diversity of Country - 25 years of strictly country magazine (1/3)
DYEAR=1996
DGENRE=Country
TTITLE0=Joe Val and The New England Bluegrass Boys - Prisoner's song
TTITLE1=Fiction Brothers - I"m Gonna Work On Monday One More Time
TTITLE2=Hugh Mofatt - Rose Of My Heart
TTITLE3=Good Ol' Persons - Think About Me
TTITLE4=Cloud Valley - Clarinet Polka
TTITLE5=Gary Brewer and The Kentucky Ramblers - Reach Out And Touch The Lord
TTITLE6=De Stroatklinkers - Zoltkamp
TTITLE7=Dick Staber and Yonder City - Bed On The Floor
TTITLE8=Blue Fane Stringband - Crowly Waltz
TTITLE9=Santiago Jiminez Jr. - Volver, Volver
TTITLE10=Trefoil - Een Vrolijk Lentelied
TTITLE11=Red Rector, Don Stover, AG and Kate - Somebody Loves You Darling
TTITLE12=Grassoline - Rockbridge Counrtry
TTITLE13=Laurie Lewis and Grant Street - Haven Of Mercy
TTITLE14=Stockwell Brothers - Southbound 
EXTD=YEAR: 1996
EXTT0=
EXTT1=
EXTT2=
EXTT3=
EXTT4=
EXTT5=
EXTT6=
EXTT7=
EXTT8=
EXTT9=
EXTT10=
EXTT11=
EXTT12=
EXTT13=
EXTT14=
PLAYORDER=
